<svg xmlns="http://www.w3.org/2000/svg" xmlns:xlink="http://www.w3.org/1999/xlink" width="200" height="46" viewBox="0 0 200 46">
    <defs>
        <path id="a" d="M.102 4.677L1.225.352c.928 1.384 7.218 10.026 19.552 10.026 3.579 0 6.31-.918 8.21-1.9a20.968 20.968 0 0 1-5.773 2.996A20.988 20.988 0 0 1 7.137 10.35 21.045 21.045 0 0 1 .102 4.677z"/>
        <path id="c" d="M.102 4.677L1.225.352c.928 1.384 7.218 10.026 19.552 10.026 3.579 0 6.31-.918 8.21-1.9a20.968 20.968 0 0 1-5.773 2.996A20.988 20.988 0 0 1 7.137 10.35 21.045 21.045 0 0 1 .102 4.677z"/>
        <path id="e" d="M26.312 15.488c4.775-5.201 4.56-13.109 4.37-15.46l4.404.362a21.034 21.034 0 0 1-4.32 20.773c-.48.48-1.213 1.13-2.218 1.776-1.8 1.157-4.853 2.536-9.186 2.536-12.68 0-18.837-9.315-19.242-9.95l3.354-1.327a13.614 13.614 0 0 0 5.555 5.094 13.578 13.578 0 0 0 10.417.73 13.717 13.717 0 0 0 2.632-1.205 13.238 13.238 0 0 0 4.234-3.33z"/>
        <path id="g" d="M26.312 15.488c4.775-5.201 4.56-13.109 4.37-15.46l4.404.362a21.034 21.034 0 0 1-4.32 20.773c-.48.48-1.213 1.13-2.218 1.776-1.8 1.157-4.853 2.536-9.186 2.536-12.68 0-18.837-9.315-19.242-9.95l3.354-1.327a13.614 13.614 0 0 0 5.555 5.094 13.578 13.578 0 0 0 10.417.73 13.717 13.717 0 0 0 2.632-1.205 13.238 13.238 0 0 0 4.234-3.33z"/>
        <path id="i" d="M26.312 15.488c4.775-5.201 4.56-13.109 4.37-15.46l4.404.362a21.034 21.034 0 0 1-4.32 20.773c-.48.48-1.213 1.13-2.218 1.776-1.8 1.157-4.853 2.536-9.186 2.536-12.68 0-18.837-9.315-19.242-9.95l3.354-1.327a13.614 13.614 0 0 0 5.555 5.094 13.578 13.578 0 0 0 10.417.73 13.717 13.717 0 0 0 2.632-1.205 13.238 13.238 0 0 0 4.234-3.33z"/>
        <path id="k" d="M1.514 3.097L3.645.34c.005.023.015.092.027.197.169 2.236.306 9.055-3.465 14.016.206-.337.403-.68.58-1.033a13.603 13.603 0 0 0 .727-10.424z"/>
        <path id="m" d="M1.514 3.097L3.645.34c.005.023.015.092.027.197.169 2.236.306 9.055-3.465 14.016.206-.337.403-.68.58-1.033a13.603 13.603 0 0 0 .727-10.424z"/>
        <path id="o" d="M6.668 1.258a20.988 20.988 0 0 1 16.075 1.126 21.086 21.086 0 0 1 6.351 4.861l-1.308 3.322s-2.379-2.797-6.313-5.19C17.287 2.75 11.445.605 4.88 2.613c-.036.01-2.14.621-4.553 2.067a20.979 20.979 0 0 1 6.34-3.422z"/>
        <path id="q" d="M0 43.908h201.813V.11H0z"/>
        <path id="s" d="M12.8.986a17.356 17.356 0 0 1 5.104-.77c8.619 0 15.252 6.437 17.11 8.444l-3.643 1.423a13.714 13.714 0 0 0-4.15-3.187 13.576 13.576 0 0 0-10.416-.728c-.166.056-.326.118-.488.18-13.25 4.319-12.912 17.599-12.783 19.59L.587 23.725A21.03 21.03 0 0 1 2.29 9.713 21.007 21.007 0 0 1 5.02 5.555C8.324 2.286 12.743 1.002 12.8.986z"/>
        <path id="u" d="M.132 17.519C.035 16.27-.501 5.655 8.426.198A13.676 13.676 0 0 0 5.03 4.524a13.61 13.61 0 0 0-.584 10.83L.132 17.52z"/>
        <path id="w" d="M.132 17.519C.035 16.27-.501 5.655 8.426.198A13.676 13.676 0 0 0 5.03 4.524a13.61 13.61 0 0 0-.584 10.83L.132 17.52z"/>
        <path id="y" d="M.132 17.519C.035 16.27-.501 5.655 8.426.198A13.676 13.676 0 0 0 5.03 4.524a13.61 13.61 0 0 0-.584 10.83L.132 17.52z"/>
        <path id="A" d="M0 .18h7.671v10.344H0z"/>
        <path id="C" d="M.258.156H7.3v10.437H.258z"/>
        <path id="E" d="M.217.156H7.26v10.437H.217z"/>
    </defs>
    <g fill="none" fill-rule="evenodd">
        <g transform="translate(5.077 29.696)">
            <mask id="b" fill="#fff">
                <use xlink:href="#a"/>
            </mask>
            <path fill="#1F6A95" d="M.102.172v13.284V.172z" mask="url(#b)"/>
            <mask id="d" fill="#fff">
                <use xlink:href="#c"/>
            </mask>
            <path fill="#1F6A95" d="M.102 13.456H30.36V.172H.102z" mask="url(#d)"/>
        </g>
        <g transform="translate(6.493 14.116)">
            <mask id="f" fill="#fff">
                <use xlink:href="#e"/>
            </mask>
            <path fill="#8F9395" d="M36.871 26.644l.771-27.785h.046v27.785z" mask="url(#f)"/>
        </g>
        <g transform="translate(6.493 14.116)">
            <mask id="h" fill="#fff">
                <use xlink:href="#g"/>
            </mask>
            <path fill="#8F9395" d="M-.775 12.2l.37-13.341h38.047l-.771 27.785H-.775z" mask="url(#h)"/>
        </g>
        <g transform="translate(6.493 14.116)">
            <mask id="j" fill="#fff">
                <use xlink:href="#i"/>
            </mask>
            <path fill="#8F9395" d="M-.275-1.141l-.5 13.34V-1.14z" mask="url(#j)"/>
        </g>
        <g transform="translate(33.033 13.762)">
            <mask id="l" fill="#fff">
                <use xlink:href="#k"/>
            </mask>
            <path fill="#1F6A95" d="M-4.671.341v18.83V.341z" mask="url(#l)"/>
            <mask id="n" fill="#fff">
                <use xlink:href="#m"/>
            </mask>
            <path fill="#1F6A95" d="M-4.67 19.171h8.259V.341h-8.26z" mask="url(#n)"/>
            <path fill="#1F6A95" d="M3.589 19.171h1.585V.341H3.589z" mask="url(#n)"/>
        </g>
        <g transform="translate(8.262 -.048)">
            <mask id="p" fill="#fff">
                <use xlink:href="#o"/>
            </mask>
            <path fill="#1F6A95" d="M-.845 10.922h30.51V-.598H-.844zM29.666 10.922V-.598v11.52z" mask="url(#p)"/>
        </g>
        <g transform="translate(-2 -.756)">
            <path fill="#FFF" d="M24.18 17.124h-2.954v13.057h-3.43V17.124h-3.812v-3.41h14.019z"/>
            <path fill="#FFF" d="M28.86 14.594v4.588h-3.822v-1.2z"/>
            <mask id="r" fill="#fff">
                <use xlink:href="#q"/>
            </mask>
            <path fill="#FFF" d="M25.038 30.18h3.822v-8.965h-3.822zM30.22 17.247l1.923-1.518c.237-.193.347-.393.347-.612 0-.36-.354-.624-.765-.624-.373 0-.695.2-.894.509l-.694-.264a1.927 1.927 0 0 1 1.633-.875c.932 0 1.466.585 1.466 1.267 0 .431-.251.792-.676 1.113l-1.401 1.062v.013h2.064v.669H30.22v-.74z" mask="url(#r)"/>
            <path fill="#231F20" d="M31.811 6.133c3.135 1.981 5.33 4.223 6.185 5.163l.052-.02s-2.35-2.76-6.237-5.143" mask="url(#r)"/>
        </g>
        <g transform="translate(.477 2.076)">
            <mask id="t" fill="#fff">
                <use xlink:href="#s"/>
            </mask>
            <path fill="#8F9395" d="M-.496 26.193h.572V-.04h-.572zM.076 26.193h35.49V-.04H.076zM35.566 26.193h.024V-.04h-.024z" mask="url(#t)"/>
        </g>
        <g transform="translate(4.37 10.575)">
            <mask id="v" fill="#fff">
                <use xlink:href="#u"/>
            </mask>
            <path fill="#1F6A95" d="M-6.37 14.821l21.258 5.944v.062H-6.37z" mask="url(#v)"/>
        </g>
        <g transform="translate(4.37 10.575)">
            <mask id="x" fill="#fff">
                <use xlink:href="#w"/>
            </mask>
            <path fill="#1F6A95" d="M-3.75-3.819l18.638 5.21v19.374L-6.37 14.821v-18.64z" mask="url(#x)"/>
        </g>
        <g transform="translate(4.37 10.575)">
            <mask id="z" fill="#fff">
                <use xlink:href="#y"/>
            </mask>
            <path fill="#1F6A95" d="M14.888 1.392L-3.75-3.82h18.638z" mask="url(#z)"/>
        </g>
        <path fill="#FFF" d="M96.013 30.58c-4.328 0-7.362-2.872-8.471-4.57l-.235-.36.368-.22 2.853-1.7.323-.193.22.304c1.41 1.935 3.121 2.916 5.087 2.916 3.234 0 4.813-2.19 4.99-4.367h-13.61l-.057-.344c-.114-.678-.178-1.322-.178-2.605 0-4.79 3.977-8.543 9.056-8.543 3.424 0 5.975 1.308 8.026 4.12l.25.342-.35.24-2.65 1.817-.332.227-.235-.326c-1.259-1.748-2.903-2.599-5.026-2.599-2.008 0-4.214 1.21-4.539 3.85h13.567l.075.316c.156.653.184 1.312.184 2.373 0 6.12-4.687 9.322-9.316 9.322M114.656 18.7c-2.22 0-4.026 1.845-4.026 4.115 0 2.268 1.806 4.115 4.026 4.115 2.15 0 3.968-1.884 3.968-4.115 0-2.231-1.818-4.116-3.968-4.116zm7.672 15.496H118.51v-5.061c-1 .918-2.456 1.445-4.084 1.445-4.66 0-7.788-4.016-7.788-7.765 0-3.817 2.859-7.765 7.644-7.765 1.646 0 3.115.533 4.228 1.521v-1.147H122.328v18.772zM132.087 30.58c-3.286 0-6.78-2.338-6.78-6.67v-8.486H129.128v8.227c0 1.771 1.272 3.106 2.959 3.106 1.688 0 2.96-1.335 2.96-3.106v-8.227H138.868v8.486c0 4.332-3.493 6.67-6.781 6.67M148.828 18.7c-2.22 0-4.026 1.845-4.026 4.115 0 2.27 1.807 4.115 4.026 4.115 2.152 0 3.969-1.884 3.969-4.115 0-2.23-1.817-4.115-3.969-4.115m-.374 11.88c-4.785 0-7.645-3.948-7.645-7.765 0-3.75 3.131-7.766 7.79-7.766 1.627 0 3.084.527 4.083 1.445v-1.07H156.502v14.781h-3.82v-1.131c-1.08.945-2.616 1.507-4.228 1.507M163.301 30.205H159.48V15.424h3.65v.655a3.273 3.273 0 0 1 2.382-1.03c.703 0 1.365.178 1.866.498l.274.178-.11.308-1.066 2.97-.195.542-.45-.359c-.208-.166-.659-.313-.866-.313-.808 0-1.664.593-1.664 1.693V30.205zM73.285 29.827h4.488V19.396h-4.488zM73.285 17.047h4.488V13.43h-4.488zM192.14 18.7c-2.22 0-4.026 1.846-4.026 4.115s1.805 4.114 4.026 4.114c2.151 0 3.968-1.884 3.968-4.114S194.29 18.7 192.14 18.7m-.375 11.88c-4.785 0-7.645-3.948-7.645-7.765 0-3.75 3.13-7.766 7.79-7.766 1.627 0 3.082.527 4.083 1.446V11.27h3.82v18.934h-3.82v-1.132c-1.078.946-2.616 1.508-4.228 1.508M171.541 20.961h6.936c-.642-1.556-1.908-2.434-3.538-2.434-1.59 0-2.853.919-3.398 2.434m3.806 9.62h-.005c-5.265 0-8.107-4.001-8.107-7.766 0-3.764 2.842-7.765 8.107-7.765 3.175 0 7.645 2.562 7.645 8.255v.96H171.47c.368 1.6 1.972 2.839 3.786 2.839 1.445 0 2.726-.691 3.705-1.999l.215-.288.313.176 2.538 1.412.422.237-.301.38c-1.8 2.265-4.215 3.529-6.8 3.558M70.554 14.784h-4.4v15.043h-4.49V14.784h-4.4v-4.011h13.29z"/>
        <g>
            <g transform="translate(132 35.251)">
                <mask id="B" fill="#fff">
                    <use xlink:href="#A"/>
                </mask>
                <path fill="#FEFEFE" d="M7.671 8.496l-.13 1.767a9.215 9.215 0 0 1-2.15.26c-1.756 0-3.094-.485-4.012-1.455C.459 8.098 0 6.919 0 5.532c0-1.439.488-2.69 1.463-3.755C2.438.712 3.775.179 5.475.179 6.1.18 6.691.251 7.25.394L6.98 2.168a5.665 5.665 0 0 0-1.735-.292c-1.04 0-1.812.33-2.319.987-.507.658-.76 1.458-.76 2.4 0 .963.3 1.797.902 2.504.601.706 1.445 1.06 2.53 1.06.635 0 1.326-.11 2.073-.33" mask="url(#B)"/>
            </g>
            <path fill="#FEFEFE" d="M146.368 41.229c-.875-2.642-1.313-4.07-1.313-4.286h-.123c0 .2-.453 1.628-1.359 4.286h2.795zm3.548 4.338h-2.458c0-.338-.233-1.295-.698-2.872h-3.548c-.482 1.551-.722 2.509-.722 2.872h-2.312c0-.2.598-1.837 1.793-4.914 1.196-3.077 1.793-4.772 1.793-5.084h2.903c0 .292.542 1.962 1.625 5.01 1.082 3.05 1.624 4.712 1.624 4.988z"/>
            <g transform="translate(150.333 35.251)">
                <mask id="D" fill="#fff">
                    <use xlink:href="#C"/>
                </mask>
                <path fill="#FEFEFE" d="M7.3 7.59c0 2.002-1.438 3.003-4.316 3.003a10.06 10.06 0 0 1-2.726-.354l.377-1.712c.83.287 1.612.43 2.35.43.818 0 1.407-.08 1.766-.238.358-.158.537-.425.537-.798 0-.39-.169-.717-.507-.984-.291-.235-.883-.542-1.774-.921-.808-.348-1.41-.727-1.804-1.137C.706 4.362.458 3.725.458 2.967c0-.88.326-1.57.979-2.066C2.09.405 3.027.156 4.252.156c1.003 0 1.845.084 2.526.254l-.284 1.705a6.534 6.534 0 0 0-2.242-.377c-1.209 0-1.813.323-1.813.968 0 .343.141.622.422.837.246.184.781.443 1.605.775.876.354 1.531.743 1.966 1.168.579.568.868 1.27.868 2.104" mask="url(#D)"/>
            </g>
            <path fill="#FEFEFE" d="M166.326 35.568l-.053 1.652a38.702 38.702 0 0 0-2.895-.115c-.011.967-.015 2.045-.015 3.233 0 1.843.027 3.586.084 5.23h-2.15c.066-1.629.1-3.372.1-5.23 0-1.168-.01-2.246-.032-3.233-.721 0-1.712.04-2.971.122l.061-1.659h7.871zM169.775 45.567H167.6c.067-1.587.1-3.33.1-5.23 0-1.868-.033-3.458-.1-4.768h2.174c-.067 1.29-.1 2.88-.1 4.769 0 1.93.033 3.673.1 5.23M180.226 45.567h-1.897c0-.21-.704-1.318-2.112-3.325-1.474-2.114-2.314-3.56-2.518-4.339h-.123a27.15 27.15 0 0 1 .191 3.041c0 1.265.036 2.806.108 4.623h-1.89c.078-1.587.116-3.33.116-5.23 0-1.868-.038-3.458-.115-4.768h2.28c0 .271.633 1.354 1.897 3.248 1.347 2.012 2.12 3.377 2.32 4.094h.115a28.96 28.96 0 0 1-.184-3.073c0-1.387-.036-2.81-.108-4.27h1.92c-.072 1.27-.108 2.86-.108 4.77 0 1.925.036 3.668.108 5.23M190.347 45.306c-1.218.312-2.237.468-3.056.468-1.761 0-3.097-.482-4.005-1.447-.909-.965-1.363-2.136-1.363-3.513 0-1.449.495-2.708 1.486-3.778.99-1.07 2.364-1.606 4.12-1.606.824 0 1.551.075 2.18.223l-.253 1.812c-.803-.21-1.526-.315-2.165-.315-1.08 0-1.887.332-2.42.995-.532.663-.798 1.473-.798 2.43 0 .979.298 1.831.895 2.558.596.727 1.42 1.09 2.469 1.09.291 0 .629-.03 1.014-.092a12.457 12.457 0 0 1-.116-1.674c0-.553-.053-1.175-.161-1.866h2.173a45.656 45.656 0 0 0-.061 2.38c0 .579.02 1.358.061 2.335"/>
            <g transform="translate(191.481 35.251)">
                <mask id="F" fill="#fff">
                    <use xlink:href="#E"/>
                </mask>
                <path fill="#FEFEFE" d="M7.26 7.59c0 2.002-1.44 3.003-4.317 3.003a10.06 10.06 0 0 1-2.726-.354l.377-1.712c.83.287 1.612.43 2.35.43.818 0 1.407-.08 1.766-.238.358-.158.537-.425.537-.798 0-.39-.169-.717-.507-.984-.291-.235-.883-.542-1.774-.921-.808-.348-1.41-.727-1.804-1.137C.665 4.362.417 3.725.417 2.967c0-.88.326-1.57.979-2.066C2.049.405 2.986.156 4.21.156c1.003 0 1.845.084 2.526.254l-.284 1.705a6.534 6.534 0 0 0-2.242-.377c-1.209 0-1.813.323-1.813.968 0 .343.141.622.422.837.246.184.781.443 1.605.775.876.354 1.531.743 1.966 1.168.579.568.868 1.27.868 2.104" mask="url(#F)"/>
            </g>
        </g>
    </g>
</svg>
