<?xml version="1.0" encoding="UTF-8"?>
<svg width="25px" height="30px" viewBox="0 0 25 30" version="1.1" xmlns="http://www.w3.org/2000/svg" xmlns:xlink="http://www.w3.org/1999/xlink">
    <!-- Generator: Sketch 49.1 (51147) - http://www.bohemiancoding.com/sketch -->
    <title>Fill 1</title>
    <desc>Created with Sketch.</desc>
    <defs></defs>
    <g id="Welcome" stroke="none" stroke-width="1" fill="none" fill-rule="evenodd">
        <g id="Desktop-HD" transform="translate(-255.000000, -1644.000000)" fill="#000000">
            <g id="Form" transform="translate(167.000000, 1163.000000)">
                <g id="Page-1" transform="translate(88.000000, 481.000000)">
                    <path d="M12.2724484,12.2724484 L12.2724484,8.28662985 L15.8273676,12.2724484 L12.2724484,12.2724484 Z M16.3632645,27.2721075 C16.3632645,28.0248176 15.7523693,28.6357128 14.9996591,28.6357128 L2.72721075,28.6357128 C1.97450058,28.6357128 1.36360537,28.0248176 1.36360537,27.2721075 L1.36360537,9.54523761 C1.36360537,8.79252744 1.97450058,8.18163224 2.72721075,8.18163224 L10.908843,8.18163224 L10.908843,12.2724484 C10.908843,13.0251585 11.5197382,13.6360537 12.2724484,13.6360537 L16.3632645,13.6360537 L16.3632645,27.2721075 Z M2.72721075,6.81802686 C1.22110861,6.81802686 0,8.03913547 0,9.54523761 L0,27.2721075 C0,28.7782096 1.22110861,30 2.72721075,30 L14.9996591,30 C16.5057612,30 17.7268698,28.7782096 17.7268698,27.2721075 L17.7268698,12.2724484 L12.954251,6.81802686 L2.72721075,6.81802686 Z M19.0904752,5.45442149 L19.0904752,1.46860299 L22.6453944,5.45442149 L19.0904752,5.45442149 Z M19.7722779,0 L9.54523761,0 C8.03913547,0 6.81802686,1.22110861 6.81802686,2.72721075 L6.81802686,4.7726188 C6.81802686,5.14965569 7.12347447,5.45442149 7.49982955,5.45442149 C7.87618463,5.45442149 8.18163224,5.14965569 8.18163224,4.7726188 L8.18163224,2.72721075 C8.18163224,1.97450058 8.79252744,1.36360537 9.54523761,1.36360537 L17.7268698,1.36360537 L17.7268698,5.45442149 C17.7268698,6.20713166 18.3377651,6.81802686 19.0904752,6.81802686 L23.1812913,6.81802686 L23.1812913,20.4540806 C23.1812913,21.2067908 22.5703961,21.817686 21.817686,21.817686 L19.7722779,21.817686 C19.3959228,21.8183678 19.0904752,22.1231336 19.0904752,22.4994886 C19.0904752,22.8765255 19.3959228,23.1812913 19.7722779,23.1812913 L21.817686,23.1812913 C23.3237881,23.1812913 24.5448967,21.9601827 24.5448967,20.4540806 L24.5448967,5.45442149 L19.7722779,0 Z" id="Fill-1"></path>
                </g>
            </g>
        </g>
    </g>
</svg>